<?xml version="1.0" encoding="utf-8"?>
<!-- Generator: Adobe Illustrator 26.4.1, SVG Export Plug-In . SVG Version: 6.00 Build 0)  -->
<svg version="1.1" id="Capa_1" xmlns="http://www.w3.org/2000/svg" xmlns:xlink="http://www.w3.org/1999/xlink" x="0px" y="0px"
	 viewBox="0 0 500 500" style="enable-background:new 0 0 500 500;" xml:space="preserve">
<style type="text/css">
	.st0{fill:#235137;}
	.st1{fill:#FFFFFF;}
</style>
<g>
	<path class="st0" d="M408.2,494.9H91.8c-47.9,0-86.6-38.8-86.6-86.6V91.8c0-47.9,38.8-86.6,86.6-86.6h316.5
		c47.9,0,86.6,38.8,86.6,86.6v316.5C494.9,456.1,456.1,494.9,408.2,494.9z"/>
</g>
<g>
	<path class="st1" d="M139.2,407.2L119.8,92.8h58.1l9,188.3l2.7,59.5h4.1l27-179.3h60.8l27,179.3h4.1l2.7-57.6l9-190.1h55.8
		l-19.4,314.4h-85.6l-23-173.4h-4.5l-23,173.4H139.2z"/>
</g>
</svg>
